<svg xmlns="http://www.w3.org/2000/svg" width="1440" height="980" viewBox="0 0 1440 980" role="img" aria-labelledby="title desc">
  <title id="title">Homelab network topology</title>
  <desc id="desc">The Internet connects to a UniFi UDM Pro. The UDM Pro terminates a Teleport VPN and seven segmented networks: Default, Services, Main, IoT, Servers, Management, and Parking. A U6 Pro carries Management natively and Main and IoT as tagged VLANs.</desc>
  <defs>
    <style>
      .bg { fill: #f8fafc; }
      text { font-family: Arial, Helvetica, sans-serif; }
      .title { fill: #0f172a; font-size: 32px; font-weight: 700; }
      .subtitle { fill: #475569; font-size: 17px; font-weight: 500; }
      .heading { fill: #0f172a; font-size: 20px; font-weight: 700; }
      .body { fill: #334155; font-size: 15px; font-weight: 500; }
      .small { fill: #475569; font-size: 13px; font-weight: 500; }
      .inverse-heading { fill: #ffffff; font-size: 23px; font-weight: 700; }
      .inverse-body { fill: #e2e8f0; font-size: 14px; font-weight: 500; }
      .line { fill: none; stroke: #64748b; stroke-width: 3; }
      .dash { fill: none; stroke: #64748b; stroke-width: 3; stroke-dasharray: 10 8; }
      .card { stroke-width: 2; rx: 16; }
    </style>
    <marker id="arrow" viewBox="0 0 10 10" refX="9" refY="5" markerWidth="7" markerHeight="7" orient="auto-start-reverse">
      <path d="M 0 0 L 10 5 L 0 10 z" fill="#64748b"/>
    </marker>
  </defs>

  <rect class="bg" width="1440" height="980" rx="24"/>
  <text class="title" x="60" y="58">Homelab network topology</text>
  <text class="subtitle" x="60" y="87">UniFi zones and hardened infrastructure paths · verified 2026-07-18</text>

  <rect x="585" y="116" width="270" height="78" rx="18" fill="#dbeafe" stroke="#2563eb" stroke-width="2"/>
  <text class="heading" x="720" y="148" text-anchor="middle">Internet</text>
  <text class="body" x="720" y="174" text-anchor="middle">WAN approximately 900/20 Mbps</text>

  <line x1="720" y1="194" x2="720" y2="237" stroke="#64748b" stroke-width="3" marker-end="url(#arrow)"/>

  <rect x="505" y="238" width="430" height="116" rx="20" fill="#172554" stroke="#1d4ed8" stroke-width="3"/>
  <text class="inverse-heading" x="720" y="277" text-anchor="middle">UniFi UDM Pro</text>
  <text class="inverse-body" x="720" y="305" text-anchor="middle">routing · DHCP/DNS · zone firewall · IDS/IPS</text>
  <text class="inverse-body" x="720" y="329" text-anchor="middle">no port forwards · UPnP/NAT-PMP disabled</text>

  <rect x="80" y="250" width="300" height="94" rx="16" fill="#ede9fe" stroke="#7c3aed" stroke-width="2"/>
  <text class="heading" x="230" y="282" text-anchor="middle">WiFiman Teleport</text>
  <text class="body" x="230" y="307" text-anchor="middle">192.168.2.0/24 · remote admin</text>
  <text class="small" x="230" y="329" text-anchor="middle">verified to Servers / Proxmox</text>
  <line x1="380" y1="297" x2="502" y2="297" stroke="#64748b" stroke-width="3" stroke-dasharray="10 8" marker-end="url(#arrow)"/>

  <line x1="720" y1="354" x2="720" y2="408" stroke="#64748b" stroke-width="3"/>
  <line x1="145" y1="408" x2="1295" y2="408" stroke="#64748b" stroke-width="3"/>
  <line x1="145" y1="408" x2="145" y2="448" stroke="#64748b" stroke-width="3"/>
  <line x1="375" y1="408" x2="375" y2="448" stroke="#64748b" stroke-width="3"/>
  <line x1="605" y1="408" x2="605" y2="448" stroke="#64748b" stroke-width="3"/>
  <line x1="835" y1="408" x2="835" y2="448" stroke="#64748b" stroke-width="3"/>
  <line x1="1065" y1="408" x2="1065" y2="448" stroke="#64748b" stroke-width="3"/>
  <line x1="1295" y1="408" x2="1295" y2="448" stroke="#64748b" stroke-width="3"/>

  <rect class="card" x="45" y="448" width="200" height="152" fill="#f1f5f9" stroke="#64748b"/>
  <text class="heading" x="145" y="482" text-anchor="middle">Default</text>
  <text class="body" x="145" y="509" text-anchor="middle">VLAN 1 · Internal</text>
  <text class="body" x="145" y="534" text-anchor="middle">192.168.10.0/24</text>
  <text class="small" x="145" y="565" text-anchor="middle">UDM port 2</text>
  <text class="small" x="145" y="586" text-anchor="middle">wired recovery</text>

  <rect class="card" x="275" y="448" width="200" height="152" fill="#fef3c7" stroke="#d97706"/>
  <text class="heading" x="375" y="482" text-anchor="middle">Services</text>
  <text class="body" x="375" y="509" text-anchor="middle">VLAN 11 · Services</text>
  <text class="body" x="375" y="534" text-anchor="middle">192.168.11.0/24</text>
  <text class="small" x="375" y="565" text-anchor="middle">gateway essentials only</text>
  <text class="small" x="375" y="586" text-anchor="middle">no Internet</text>

  <rect class="card" x="505" y="448" width="200" height="152" fill="#dcfce7" stroke="#16a34a"/>
  <text class="heading" x="605" y="482" text-anchor="middle">Main</text>
  <text class="body" x="605" y="509" text-anchor="middle">VLAN 20 · Trusted</text>
  <text class="body" x="605" y="534" text-anchor="middle">192.168.20.0/24</text>
  <text class="small" x="605" y="565" text-anchor="middle">admin clients</text>
  <text class="small" x="605" y="586" text-anchor="middle">primary SSID</text>

  <rect class="card" x="735" y="448" width="200" height="152" fill="#ffedd5" stroke="#ea580c"/>
  <text class="heading" x="835" y="482" text-anchor="middle">IoT</text>
  <text class="body" x="835" y="509" text-anchor="middle">VLAN 30 · IoT</text>
  <text class="body" x="835" y="534" text-anchor="middle">192.168.30.0/24</text>
  <text class="small" x="835" y="565" text-anchor="middle">IoT SSID + Apple TV</text>
  <text class="small" x="835" y="586" text-anchor="middle">gateway locked down</text>

  <rect class="card" x="965" y="448" width="200" height="152" fill="#dbeafe" stroke="#2563eb"/>
  <text class="heading" x="1065" y="482" text-anchor="middle">Servers</text>
  <text class="body" x="1065" y="509" text-anchor="middle">VLAN 40 · Servers</text>
  <text class="body" x="1065" y="534" text-anchor="middle">192.168.40.0/24</text>
  <text class="small" x="1065" y="565" text-anchor="middle">Proxmox · VMs · K8s</text>
  <text class="small" x="1065" y="586" text-anchor="middle">VIPs · future OKD</text>

  <rect class="card" x="1195" y="448" width="200" height="152" fill="#f3e8ff" stroke="#9333ea"/>
  <text class="heading" x="1295" y="482" text-anchor="middle">Management</text>
  <text class="body" x="1295" y="509" text-anchor="middle">VLAN 50 · Management</text>
  <text class="body" x="1295" y="534" text-anchor="middle">192.168.50.0/24</text>
  <text class="small" x="1295" y="565" text-anchor="middle">U6 Pro .251</text>
  <text class="small" x="1295" y="586" text-anchor="middle">USP-PDU-Pro .252</text>

  <rect x="65" y="660" width="350" height="186" rx="18" fill="#ffffff" stroke="#94a3b8" stroke-width="2"/>
  <text class="heading" x="240" y="696" text-anchor="middle">U6 Pro uplink · UDM port 7</text>
  <text class="body" x="90" y="729">Native: Management VLAN 50</text>
  <text class="body" x="90" y="756">Tagged: Main 20 and IoT 30 only</text>
  <text class="body" x="90" y="783">AP management: 192.168.50.251</text>
  <text class="small" x="90" y="817">1 Gbps full duplex · both SSIDs verified</text>
  <polyline points="415,735 480,735 535,650 605,602" fill="none" stroke="#64748b" stroke-width="3" marker-end="url(#arrow)"/>
  <polyline points="415,785 585,785 700,665 835,602" fill="none" stroke="#64748b" stroke-width="3" marker-end="url(#arrow)"/>

  <rect x="490" y="660" width="460" height="186" rx="18" fill="#ffffff" stroke="#94a3b8" stroke-width="2"/>
  <text class="heading" x="720" y="696" text-anchor="middle">Routed policy summary</text>
  <text class="body" x="520" y="730">Approved MacBook / VPN → infrastructure admin paths</text>
  <text class="body" x="520" y="758">IoT → Internet + DHCP/DNS/NTP/mDNS; no Servers</text>
  <text class="body" x="520" y="786">Servers → Internet + gateway; no client-zone initiation</text>
  <text class="body" x="520" y="814">mDNS currently spans Main, IoT, Services, and Servers</text>

  <rect x="1025" y="660" width="350" height="186" rx="18" fill="#ffffff" stroke="#94a3b8" stroke-width="2"/>
  <text class="heading" x="1200" y="696" text-anchor="middle">Servers VLAN examples</text>
  <text class="body" x="1055" y="729">pve-01 .20 · k3s .21-.23</text>
  <text class="body" x="1055" y="756">utility-01 .24 · pve-02 .25</text>
  <text class="body" x="1055" y="783">Traefik VIP .30 · bastion .33</text>
  <text class="small" x="1055" y="817">UDM port 1 native 40 · access mode · tags blocked</text>
  <polyline points="1200,660 1200,630 1110,630 1065,602" fill="none" stroke="#64748b" stroke-width="3" marker-end="url(#arrow)"/>

  <rect x="505" y="890" width="430" height="54" rx="14" fill="#e2e8f0" stroke="#64748b" stroke-width="2"/>
  <text class="body" x="720" y="923" text-anchor="middle">Parking VLAN 999 · no subnet · unused ports only</text>
</svg>
